<svg width="419" height="660" viewBox="0 0 419 660" fill="none" xmlns="http://www.w3.org/2000/svg">
<g id="Group 38">
<g id="Group 2 Copy 3">
<g id="iPhone-X-Mockup">
<g id="phone">
<g id="body" filter="url(#filter0_d)">
<path fill-rule="evenodd" clip-rule="evenodd" d="M88.776 55.5695H280.009C298.35 55.5695 313.217 69.8048 313.217 87.365V522.635C313.217 540.195 298.35 554.431 280.009 554.431H88.776C70.4357 554.431 55.5679 540.195 55.5679 522.635V87.365C55.5679 69.8048 70.4357 55.5695 88.776 55.5695Z" fill="#213648"/>
</g>
<g id="frame">
<path id="reflect-frame-top" opacity="0.595562" fill-rule="evenodd" clip-rule="evenodd" d="M280.749 55H87.9226C78.92 55.549 70.6174 59.6569 63.0146 67.3239C67.9041 63.0559 76.6249 57.3446 88.1546 57.3446C88.1546 57.3446 272.83 57.3446 280.517 57.3446C292.046 57.3446 300.767 63.0559 305.656 67.3239C298.054 59.6569 289.751 55.549 280.749 55Z" fill="url(#paint0_linear)" fill-opacity="0.65"/>
<path id="reflect-frame-right" opacity="0.75" fill-rule="evenodd" clip-rule="evenodd" d="M307.999 517.671V89.9818C307.999 78.5065 303.782 74.2644 301.266 71.5405C298.75 68.8165 298.643 67.4272 302.258 69.4838C305.873 71.5405 313.103 77.5305 313.103 89.9818V517.671C313.103 530.122 305.873 536.112 302.258 538.169C298.643 540.225 298.75 538.836 301.266 536.112C303.782 533.388 307.999 529.146 307.999 517.671Z" fill="url(#paint1_linear)"/>
<path id="reflect-frame-left" opacity="0.75" fill-rule="evenodd" clip-rule="evenodd" d="M60.672 517.671V89.9818C60.672 78.5065 64.8894 74.2644 67.4053 71.5405C69.9212 68.8165 70.0283 67.4272 66.4134 69.4838C62.7984 71.5405 55.568 77.5305 55.568 89.9818V517.671C55.568 530.122 62.7984 536.112 66.4134 538.169C70.0283 540.225 69.9212 538.836 67.4053 536.112C64.8894 533.388 60.672 529.146 60.672 517.671Z" fill="url(#paint2_linear)"/>
</g>
<g id="controls">
<path id="vol+" fill-rule="evenodd" clip-rule="evenodd" d="M53 158.557C53 157.452 53.8954 156.557 55 156.557H55.9645C57.0691 156.557 57.9645 157.452 57.9645 158.557V218.907C57.9645 220.012 57.0691 220.907 55.9645 220.907H55C53.8954 220.907 53 220.012 53 218.907V158.557Z" fill="#2E423C"/>
<path id="power" fill-rule="evenodd" clip-rule="evenodd" d="M310.535 211.043C310.535 209.939 311.431 209.043 312.535 209.043H313.5C314.605 209.043 315.5 209.939 315.5 211.043V253.993C315.5 255.098 314.605 255.993 313.5 255.993H312.535C311.431 255.993 310.535 255.098 310.535 253.993V211.043Z" fill="#2E423C"/>
</g>
</g>
<g id="Screen">
<path id="Screen Mask" fill-rule="evenodd" clip-rule="evenodd" d="M161.676 67.4445L87.2698 67.4445C76.1653 67.4445 68.0742 75.0078 68.0742 84.8859V507.276C68.0742 520.156 80.5765 531.567 94.7134 531.567H274.046C287.664 531.567 300.686 520.067 300.686 507.276V86.0276C300.686 74.188 291.896 67.5149 281.49 67.4445L205.904 67.4445C205.618 67.4914 200.425 69.6262 198.231 75.0078C196.036 80.3893 191.621 84.6793 186.787 84.6793H181.172C178.874 84.6793 172.824 82.4496 169.76 75.0078C166.697 67.5659 161.963 67.4914 161.676 67.4445Z" fill="#36536B"/>
<mask id="mask0" mask-type="alpha" maskUnits="userSpaceOnUse" x="68" y="67" width="233" height="465">
<path id="Screen Mask_2" fill-rule="evenodd" clip-rule="evenodd" d="M161.676 67.4445L87.2698 67.4445C76.1653 67.4445 68.0742 75.0078 68.0742 84.8859V507.276C68.0742 520.156 80.5765 531.567 94.7134 531.567H274.046C287.664 531.567 300.686 520.067 300.686 507.276V86.0276C300.686 74.188 291.896 67.5149 281.49 67.4445L205.904 67.4445C205.618 67.4914 200.425 69.6262 198.231 75.0078C196.036 80.3893 191.621 84.6793 186.787 84.6793H181.172C178.874 84.6793 172.824 82.4496 169.76 75.0078C166.697 67.5659 161.963 67.4914 161.676 67.4445Z" fill="white"/>
</mask>
<g mask="url(#mask0)">
</g>
</g>
</g>
</g>
<g id="Group 39">
<g id="Group 33">
<g id="Group 34">
<g id="Rectangle" filter="url(#filter1_d)">
<rect x="96" y="197" width="176" height="191" rx="5" fill="#FBFCFE"/>
</g>
<g id="Group 32">
<g id="Group 31">
<circle id="Oval" opacity="0.25" cx="183" cy="261" r="28" fill="#BA4270"/>
<path id="Path 2" d="M174 262.696L178.577 267.273L191.85 254" stroke="#BA4270" stroke-width="3"/>
</g>
</g>
</g>
</g>
<g id="Group 2 Copy">
<rect id="Rectangle_2" x="119" y="373" width="131" height="30" rx="15" fill="#BA4270"/>
<path id="Dismiss" d="M165.574 384.047C165.614 384.047 165.726 384.047 165.909 384.047C166.096 384.047 166.314 384.047 166.564 384.047C166.817 384.047 167.068 384.049 167.317 384.052C167.57 384.052 167.781 384.054 167.95 384.058C168.914 384.08 169.699 384.252 170.304 384.575C170.912 384.898 171.36 385.349 171.646 385.928C171.932 386.507 172.075 387.193 172.075 387.985C172.075 388.81 171.924 389.523 171.624 390.124C171.323 390.722 170.863 391.184 170.243 391.51C169.627 391.837 168.844 392 167.895 392H165.574V384.047ZM167.191 385.345V390.702H167.928C168.382 390.702 168.795 390.614 169.165 390.438C169.539 390.262 169.838 389.974 170.062 389.574C170.285 389.175 170.397 388.641 170.397 387.974C170.397 387.046 170.177 386.377 169.737 385.966C169.301 385.552 168.705 385.345 167.95 385.345H167.191ZM174.836 384.052V385.499H173.274V384.052H174.836ZM174.819 386.313V392H173.285V386.313H174.819ZM178.44 392.11C178.04 392.11 177.659 392.046 177.296 391.917C176.933 391.785 176.623 391.58 176.366 391.301C176.109 391.023 175.948 390.658 175.882 390.207H177.274C177.343 390.511 177.497 390.722 177.736 390.839C177.978 390.953 178.209 391.01 178.429 391.01C178.737 391.01 178.984 390.962 179.171 390.867C179.362 390.768 179.457 390.618 179.457 390.416C179.457 390.262 179.4 390.139 179.287 390.047C179.177 389.956 178.993 389.886 178.737 389.838L177.736 389.629C177.233 389.523 176.828 389.343 176.52 389.09C176.216 388.834 176.062 388.471 176.058 388.001C176.054 387.488 176.256 387.061 176.663 386.72C177.074 386.375 177.668 386.203 178.445 386.203C179.145 386.203 179.705 386.359 180.123 386.67C180.544 386.978 180.759 387.411 180.766 387.968H179.424C179.384 387.748 179.274 387.58 179.094 387.462C178.918 387.341 178.696 387.281 178.429 387.281C178.15 387.281 177.921 387.33 177.741 387.429C177.561 387.528 177.472 387.679 177.472 387.88C177.472 388.031 177.545 388.15 177.692 388.238C177.838 388.322 178.066 388.396 178.374 388.458L179.298 388.667C179.719 388.77 180.04 388.92 180.26 389.118C180.484 389.316 180.634 389.525 180.711 389.745C180.792 389.961 180.832 390.156 180.832 390.328C180.832 390.896 180.61 391.336 180.167 391.648C179.723 391.956 179.147 392.11 178.44 392.11ZM181.874 392V386.313H183.447V387.116C183.619 386.867 183.85 386.652 184.14 386.473C184.433 386.293 184.802 386.203 185.246 386.203C185.535 386.203 185.83 386.28 186.131 386.434C186.435 386.588 186.672 386.815 186.841 387.116C187.024 386.856 187.264 386.639 187.561 386.467C187.862 386.291 188.195 386.203 188.562 386.203C188.844 386.203 189.129 386.267 189.415 386.395C189.701 386.524 189.939 386.736 190.13 387.033C190.324 387.33 190.421 387.736 190.421 388.249V392H188.815V388.447C188.815 388.102 188.72 387.86 188.529 387.721C188.338 387.582 188.129 387.512 187.902 387.512C187.759 387.512 187.614 387.541 187.468 387.6C187.321 387.655 187.196 387.745 187.094 387.869C186.991 387.994 186.94 388.157 186.94 388.359V392H185.339V388.304C185.339 388.047 185.242 387.851 185.048 387.715C184.853 387.58 184.65 387.512 184.437 387.512C184.217 387.512 184.003 387.582 183.794 387.721C183.585 387.86 183.48 388.073 183.48 388.359V392H181.874ZM193.273 384.052V385.499H191.711V384.052H193.273ZM193.257 386.313V392H191.722V386.313H193.257ZM196.877 392.11C196.477 392.11 196.096 392.046 195.733 391.917C195.37 391.785 195.06 391.58 194.804 391.301C194.547 391.023 194.386 390.658 194.32 390.207H195.711C195.781 390.511 195.935 390.722 196.173 390.839C196.415 390.953 196.646 391.01 196.866 391.01C197.174 391.01 197.422 390.962 197.609 390.867C197.799 390.768 197.895 390.618 197.895 390.416C197.895 390.262 197.838 390.139 197.724 390.047C197.614 389.956 197.431 389.886 197.174 389.838L196.173 389.629C195.671 389.523 195.266 389.343 194.958 389.09C194.653 388.834 194.499 388.471 194.496 388.001C194.492 387.488 194.694 387.061 195.101 386.72C195.511 386.375 196.105 386.203 196.883 386.203C197.583 386.203 198.142 386.359 198.56 386.67C198.982 386.978 199.196 387.411 199.204 387.968H197.862C197.821 387.748 197.711 387.58 197.532 387.462C197.356 387.341 197.134 387.281 196.866 387.281C196.587 387.281 196.358 387.33 196.179 387.429C195.999 387.528 195.909 387.679 195.909 387.88C195.909 388.031 195.982 388.15 196.129 388.238C196.276 388.322 196.503 388.396 196.811 388.458L197.735 388.667C198.157 388.77 198.478 388.92 198.698 389.118C198.921 389.316 199.072 389.525 199.149 389.745C199.229 389.961 199.27 390.156 199.27 390.328C199.27 390.896 199.048 391.336 198.604 391.648C198.16 391.956 197.585 392.11 196.877 392.11ZM202.486 392.11C202.086 392.11 201.705 392.046 201.342 391.917C200.979 391.785 200.669 391.58 200.412 391.301C200.156 391.023 199.994 390.658 199.928 390.207H201.32C201.39 390.511 201.544 390.722 201.782 390.839C202.024 390.953 202.255 391.01 202.475 391.01C202.783 391.01 203.03 390.962 203.217 390.867C203.408 390.768 203.503 390.618 203.503 390.416C203.503 390.262 203.447 390.139 203.333 390.047C203.223 389.956 203.04 389.886 202.783 389.838L201.782 389.629C201.28 389.523 200.874 389.343 200.566 389.09C200.262 388.834 200.108 388.471 200.104 388.001C200.101 387.488 200.302 387.061 200.709 386.72C201.12 386.375 201.714 386.203 202.491 386.203C203.192 386.203 203.751 386.359 204.169 386.67C204.591 386.978 204.805 387.411 204.812 387.968H203.47C203.43 387.748 203.32 387.58 203.14 387.462C202.964 387.341 202.743 387.281 202.475 387.281C202.196 387.281 201.967 387.33 201.787 387.429C201.608 387.528 201.518 387.679 201.518 387.88C201.518 388.031 201.591 388.15 201.738 388.238C201.885 388.322 202.112 388.396 202.42 388.458L203.344 388.667C203.766 388.77 204.086 388.92 204.306 389.118C204.53 389.316 204.68 389.525 204.757 389.745C204.838 389.961 204.878 390.156 204.878 390.328C204.878 390.896 204.657 391.336 204.213 391.648C203.769 391.956 203.194 392.11 202.486 392.11Z" fill="#FBFCFE"/>
</g>
</g>
</g>
<defs>
<filter id="filter0_d" x="0.567871" y="0.569473" width="417.649" height="658.861" filterUnits="userSpaceOnUse" color-interpolation-filters="sRGB">
<feFlood flood-opacity="0" result="BackgroundImageFix"/>
<feColorMatrix in="SourceAlpha" type="matrix" values="0 0 0 0 0 0 0 0 0 0 0 0 0 0 0 0 0 0 127 0"/>
<feOffset dx="25" dy="25"/>
<feGaussianBlur stdDeviation="40"/>
<feColorMatrix type="matrix" values="0 0 0 0 0.212302 0 0 0 0 0.32521 0 0 0 0 0.419299 0 0 0 0.300727 0"/>
<feBlend mode="normal" in2="BackgroundImageFix" result="effect1_dropShadow"/>
<feBlend mode="normal" in="SourceGraphic" in2="effect1_dropShadow" result="shape"/>
</filter>
<filter id="filter1_d" x="91" y="192" width="206" height="221" filterUnits="userSpaceOnUse" color-interpolation-filters="sRGB">
<feFlood flood-opacity="0" result="BackgroundImageFix"/>
<feColorMatrix in="SourceAlpha" type="matrix" values="0 0 0 0 0 0 0 0 0 0 0 0 0 0 0 0 0 0 127 0"/>
<feMorphology radius="10" operator="erode" in="SourceAlpha" result="effect1_dropShadow"/>
<feOffset dx="10" dy="10"/>
<feGaussianBlur stdDeviation="12.5"/>
<feColorMatrix type="matrix" values="0 0 0 0 0.212302 0 0 0 0 0.32521 0 0 0 0 0.419299 0 0 0 0.25 0"/>
<feBlend mode="normal" in2="BackgroundImageFix" result="effect1_dropShadow"/>
<feBlend mode="normal" in="SourceGraphic" in2="effect1_dropShadow" result="shape"/>
</filter>
<linearGradient id="paint0_linear" x1="63.0146" y1="55" x2="63.0146" y2="67.3239" gradientUnits="userSpaceOnUse">
<stop stop-color="#454545"/>
<stop offset="0.226279" stop-color="#999999"/>
<stop offset="1" stop-color="white"/>
</linearGradient>
<linearGradient id="paint1_linear" x1="313.103" y1="140.747" x2="303.642" y2="140.747" gradientUnits="userSpaceOnUse">
<stop stop-color="white" stop-opacity="0.01"/>
<stop offset="0.222178" stop-color="#BABABA"/>
<stop offset="0.54678" stop-color="white" stop-opacity="0.01"/>
<stop offset="1" stop-color="white" stop-opacity="0.01"/>
</linearGradient>
<linearGradient id="paint2_linear" x1="55.568" y1="140.487" x2="65.044" y2="140.487" gradientUnits="userSpaceOnUse">
<stop stop-color="white" stop-opacity="0.01"/>
<stop offset="0.222178" stop-color="#BABABA"/>
<stop offset="0.54678" stop-color="white" stop-opacity="0.01"/>
<stop offset="1" stop-color="white" stop-opacity="0.01"/>
</linearGradient>
</defs>
</svg>
