<svg width="419" height="660" viewBox="0 0 419 660" fill="none" xmlns="http://www.w3.org/2000/svg">
<g id="Group 2 Copy 4">
<g id="iPhone-X-Mockup">
<g id="phone">
<g id="body" filter="url(#filter0_d)">
<path fill-rule="evenodd" clip-rule="evenodd" d="M88.7761 55.5695H280.009C298.35 55.5695 313.217 69.8048 313.217 87.365V522.635C313.217 540.195 298.35 554.431 280.009 554.431H88.7761C70.4358 554.431 55.568 540.195 55.568 522.635V87.365C55.568 69.8048 70.4358 55.5695 88.7761 55.5695Z" fill="#213648"/>
</g>
<g id="frame">
<path id="reflect-frame-top" opacity="0.595562" fill-rule="evenodd" clip-rule="evenodd" d="M280.749 55H87.9227C78.9202 55.549 70.6175 59.6569 63.0148 67.3239C67.9042 63.0559 76.625 57.3446 88.1547 57.3446C88.1547 57.3446 272.83 57.3446 280.517 57.3446C292.046 57.3446 300.767 63.0559 305.657 67.3239C298.054 59.6569 289.751 55.549 280.749 55Z" fill="url(#paint0_linear)" fill-opacity="0.65"/>
<path id="reflect-frame-right" opacity="0.75" fill-rule="evenodd" clip-rule="evenodd" d="M307.999 517.671V89.9818C307.999 78.5065 303.782 74.2644 301.266 71.5405C298.75 68.8165 298.643 67.4272 302.258 69.4838C305.873 71.5405 313.103 77.5305 313.103 89.9818V517.671C313.103 530.122 305.873 536.112 302.258 538.169C298.643 540.225 298.75 538.836 301.266 536.112C303.782 533.388 307.999 529.146 307.999 517.671Z" fill="url(#paint1_linear)"/>
<path id="reflect-frame-left" opacity="0.75" fill-rule="evenodd" clip-rule="evenodd" d="M60.672 517.671V89.9818C60.672 78.5065 64.8894 74.2644 67.4053 71.5405C69.9212 68.8165 70.0283 67.4272 66.4134 69.4838C62.7984 71.5405 55.568 77.5305 55.568 89.9818V517.671C55.568 530.122 62.7984 536.112 66.4134 538.169C70.0283 540.225 69.9212 538.836 67.4053 536.112C64.8894 533.388 60.672 529.146 60.672 517.671Z" fill="url(#paint2_linear)"/>
</g>
<g id="controls">
<path id="vol+" fill-rule="evenodd" clip-rule="evenodd" d="M53 158.557C53 157.452 53.8954 156.557 55 156.557H55.9645C57.0691 156.557 57.9645 157.452 57.9645 158.557V218.907C57.9645 220.012 57.0691 220.907 55.9645 220.907H55C53.8954 220.907 53 220.012 53 218.907V158.557Z" fill="#2E423C"/>
<path id="power" fill-rule="evenodd" clip-rule="evenodd" d="M310.535 211.043C310.535 209.939 311.431 209.043 312.535 209.043H313.5C314.605 209.043 315.5 209.939 315.5 211.043V253.993C315.5 255.098 314.605 255.993 313.5 255.993H312.535C311.431 255.993 310.535 255.098 310.535 253.993V211.043Z" fill="#2E423C"/>
</g>
</g>
<g id="Screen">
<path id="Screen Mask" fill-rule="evenodd" clip-rule="evenodd" d="M161.676 67.4445L87.2698 67.4445C76.1653 67.4445 68.0742 75.0078 68.0742 84.8859V507.276C68.0742 520.156 80.5765 531.567 94.7134 531.567H274.046C287.664 531.567 300.686 520.067 300.686 507.276V86.0276C300.686 74.188 291.896 67.5149 281.49 67.4445L205.904 67.4445C205.618 67.4914 200.425 69.6262 198.231 75.0078C196.036 80.3893 191.621 84.6793 186.787 84.6793H181.172C178.874 84.6793 172.824 82.4496 169.76 75.0078C166.697 67.5659 161.963 67.4914 161.676 67.4445Z" fill="#EDF3F8"/>
<mask id="mask0" mask-type="alpha" maskUnits="userSpaceOnUse" x="68" y="67" width="233" height="465">
<path id="Screen Mask_2" fill-rule="evenodd" clip-rule="evenodd" d="M161.676 67.4445L87.2698 67.4445C76.1653 67.4445 68.0742 75.0078 68.0742 84.8859V507.276C68.0742 520.156 80.5765 531.567 94.7134 531.567H274.046C287.664 531.567 300.686 520.067 300.686 507.276V86.0276C300.686 74.188 291.896 67.5149 281.49 67.4445L205.904 67.4445C205.618 67.4914 200.425 69.6262 198.231 75.0078C196.036 80.3893 191.621 84.6793 186.787 84.6793H181.172C178.874 84.6793 172.824 82.4496 169.76 75.0078C166.697 67.5659 161.963 67.4914 161.676 67.4445Z" fill="white"/>
</mask>
<g mask="url(#mask0)">
<g id="Group 37">
<g id="Group 36">
<g id="Rectangle" filter="url(#filter1_d)">
<rect x="83" y="228" width="204" height="40" rx="5" fill="#FBFCFE"/>
</g>
<g id="Group 35">
<path id="$29" d="M249.313 241.255H250.958V242.549C251.504 242.644 251.972 242.824 252.362 243.088C252.756 243.353 253.057 243.676 253.265 244.057C253.477 244.438 253.579 244.852 253.571 245.298L251.653 245.331C251.592 244.915 251.454 244.588 251.237 244.349C251.02 244.111 250.661 243.992 250.158 243.992C249.642 243.992 249.235 244.1 248.936 244.317C248.637 244.529 248.488 244.804 248.488 245.142C248.488 245.415 248.579 245.632 248.761 245.792C248.947 245.948 249.296 246.094 249.807 246.228L251.322 246.598C252.175 246.802 252.791 247.153 253.168 247.651C253.549 248.145 253.74 248.743 253.74 249.445C253.74 250.156 253.486 250.745 252.979 251.213C252.472 251.677 251.785 251.965 250.919 252.078V253.242H249.281V252.085C248.392 251.98 247.673 251.705 247.123 251.259C246.577 250.813 246.26 250.178 246.174 249.354L248.15 249.315C248.249 249.744 248.472 250.072 248.819 250.297C249.166 250.518 249.599 250.628 250.119 250.628C250.587 250.628 250.971 250.518 251.27 250.297C251.573 250.076 251.725 249.796 251.725 249.458C251.725 249.112 251.614 248.854 251.393 248.685C251.172 248.512 250.832 248.373 250.373 248.269L248.832 247.938C248.113 247.794 247.539 247.511 247.11 247.086C246.681 246.661 246.462 246.087 246.453 245.363C246.449 244.852 246.568 244.401 246.811 244.011C247.058 243.617 247.396 243.294 247.825 243.043C248.258 242.792 248.754 242.625 249.313 242.542V241.255ZM255.013 252V250.583C255.013 250.106 255.102 249.695 255.28 249.348C255.457 248.997 255.691 248.694 255.982 248.438C256.276 248.182 256.597 247.957 256.944 247.762C257.295 247.563 257.646 247.378 257.997 247.209C258.348 247.036 258.668 246.861 258.959 246.683C259.253 246.505 259.49 246.308 259.667 246.091C259.845 245.87 259.934 245.615 259.934 245.324C259.934 244.947 259.802 244.64 259.537 244.401C259.273 244.163 258.915 244.044 258.465 244.044C257.992 244.044 257.589 244.18 257.256 244.453C256.926 244.726 256.725 245.138 256.651 245.688H254.838C254.842 245.09 254.981 244.549 255.254 244.063C255.527 243.574 255.934 243.186 256.476 242.9C257.017 242.614 257.698 242.471 258.517 242.471C259.219 242.471 259.823 242.59 260.33 242.828C260.842 243.067 261.236 243.398 261.513 243.823C261.791 244.248 261.929 244.744 261.929 245.311C261.929 245.788 261.843 246.198 261.669 246.54C261.496 246.878 261.266 247.17 260.98 247.417C260.694 247.66 260.38 247.872 260.038 248.054C259.695 248.236 259.353 248.405 259.011 248.561C258.673 248.713 258.361 248.871 258.075 249.036C257.789 249.196 257.559 249.378 257.386 249.582C257.212 249.786 257.126 250.03 257.126 250.316V250.401H261.916V252H255.013ZM266.454 252.143C265.865 252.143 265.317 252.03 264.81 251.805C264.307 251.58 263.895 251.263 263.575 250.856C263.254 250.444 263.074 249.963 263.035 249.413H264.842C264.92 249.777 265.093 250.074 265.362 250.303C265.631 250.529 265.969 250.641 266.376 250.641C266.827 250.641 267.221 250.535 267.559 250.323C267.901 250.111 268.157 249.773 268.326 249.309C268.499 248.845 268.56 248.239 268.508 247.489C268.322 247.836 268.038 248.113 267.657 248.321C267.275 248.525 266.822 248.626 266.298 248.626C265.661 248.626 265.096 248.507 264.602 248.269C264.112 248.026 263.726 247.684 263.445 247.242C263.167 246.796 263.029 246.267 263.029 245.656C263.029 245.041 263.176 244.492 263.471 244.011C263.765 243.53 264.177 243.153 264.706 242.88C265.234 242.607 265.854 242.471 266.565 242.471C267.362 242.471 268.049 242.662 268.625 243.043C269.206 243.42 269.65 243.957 269.958 244.655C270.27 245.348 270.426 246.165 270.426 247.105C270.426 248.787 270.072 250.048 269.366 250.888C268.66 251.725 267.689 252.143 266.454 252.143ZM266.623 247.118C266.887 247.118 267.143 247.06 267.39 246.943C267.641 246.822 267.847 246.67 268.008 246.488C268.168 246.306 268.248 246.117 268.248 245.922C268.252 245.29 268.103 244.796 267.8 244.44C267.501 244.085 267.108 243.907 266.623 243.907C266.177 243.907 265.806 244.061 265.512 244.369C265.217 244.677 265.07 245.077 265.07 245.571C265.07 246.061 265.213 246.442 265.499 246.715C265.785 246.984 266.159 247.118 266.623 247.118Z" fill="#36536B"/>
</g>
</g>
<g id="Group 36 Copy">
<g id="Rectangle_2" filter="url(#filter2_d)">
<rect x="83" y="276" width="204" height="40" rx="5" fill="#FBFCFE"/>
</g>
<g id="Group 35_2">
<path id="$105" d="M243.522 289.255H245.167V290.549C245.713 290.644 246.181 290.824 246.571 291.088C246.965 291.353 247.266 291.676 247.474 292.057C247.687 292.438 247.789 292.852 247.78 293.298L245.862 293.331C245.802 292.915 245.663 292.588 245.446 292.349C245.23 292.111 244.87 291.992 244.367 291.992C243.852 291.992 243.444 292.1 243.145 292.317C242.846 292.529 242.697 292.804 242.697 293.142C242.697 293.415 242.788 293.632 242.97 293.792C243.156 293.948 243.505 294.094 244.016 294.228L245.531 294.598C246.385 294.802 247 295.153 247.377 295.651C247.758 296.145 247.949 296.743 247.949 297.445C247.949 298.156 247.695 298.745 247.188 299.213C246.681 299.677 245.995 299.965 245.128 300.078V301.242H243.49V300.085C242.602 299.98 241.882 299.705 241.332 299.259C240.786 298.813 240.47 298.178 240.383 297.354L242.359 297.315C242.459 297.744 242.682 298.072 243.028 298.297C243.375 298.518 243.808 298.628 244.328 298.628C244.796 298.628 245.18 298.518 245.479 298.297C245.782 298.076 245.934 297.796 245.934 297.458C245.934 297.112 245.823 296.854 245.602 296.685C245.381 296.512 245.041 296.373 244.582 296.269L243.041 295.938C242.322 295.794 241.748 295.511 241.319 295.086C240.89 294.661 240.671 294.087 240.662 293.363C240.658 292.852 240.777 292.401 241.02 292.011C241.267 291.617 241.605 291.294 242.034 291.043C242.467 290.792 242.963 290.625 243.522 290.542V289.255ZM250.724 300V292.96H249.047V291.888C249.853 291.888 250.434 291.775 250.789 291.55C251.144 291.32 251.344 291.004 251.387 290.601H252.648V300H250.724ZM258.148 290.471C259.266 290.471 260.147 290.889 260.793 291.725C261.439 292.562 261.762 293.76 261.762 295.32C261.762 296.876 261.441 298.069 260.8 298.901C260.163 299.729 259.279 300.143 258.148 300.143C257.008 300.143 256.117 299.729 255.476 298.901C254.839 298.074 254.521 296.882 254.521 295.326C254.521 293.762 254.843 292.562 255.489 291.725C256.139 290.889 257.025 290.471 258.148 290.471ZM258.148 298.589C258.711 298.589 259.12 298.34 259.376 297.842C259.636 297.344 259.766 296.505 259.766 295.326C259.766 294.126 259.634 293.266 259.37 292.746C259.105 292.226 258.696 291.966 258.141 291.966C257.586 291.966 257.173 292.228 256.9 292.752C256.631 293.277 256.497 294.135 256.497 295.326C256.497 296.496 256.631 297.333 256.9 297.835C257.168 298.338 257.584 298.589 258.148 298.589ZM263.781 290.601H269.82L269.748 292.154H265.283L265.101 294.423C265.447 294.228 265.777 294.087 266.089 294C266.405 293.914 266.752 293.87 267.129 293.87C267.753 293.87 268.314 293.99 268.812 294.228C269.31 294.462 269.705 294.806 269.995 295.261C270.285 295.716 270.431 296.271 270.431 296.925C270.431 297.588 270.281 298.16 269.982 298.641C269.683 299.122 269.258 299.493 268.708 299.753C268.162 300.013 267.514 300.143 266.765 300.143C266.149 300.143 265.577 300.048 265.049 299.857C264.52 299.666 264.063 299.406 263.677 299.077C263.291 298.743 262.999 298.362 262.8 297.933L264.282 297.055C264.537 297.497 264.843 297.868 265.198 298.167C265.553 298.466 266.011 298.615 266.57 298.615C267.133 298.615 267.586 298.466 267.928 298.167C268.27 297.868 268.442 297.478 268.442 296.997C268.442 296.546 268.273 296.169 267.935 295.866C267.601 295.558 267.168 295.404 266.635 295.404C266.344 295.404 266.076 295.443 265.829 295.521C265.586 295.599 265.306 295.764 264.99 296.015C264.929 296.041 264.886 296.054 264.86 296.054C264.838 296.054 264.795 296.039 264.73 296.009L263.352 295.372L263.781 290.601Z" fill="#36536B"/>
</g>
</g>
<g id="Group 36 Copy 3">
<g id="Rectangle_3" filter="url(#filter3_d)">
<rect x="83" y="324" width="204" height="40" rx="5" fill="#FBFCFE"/>
</g>
<g id="Group 35_3">
<path id="$810" d="M243.573 337.255H245.218V338.549C245.764 338.644 246.232 338.824 246.622 339.088C247.016 339.353 247.317 339.676 247.525 340.057C247.738 340.438 247.839 340.852 247.831 341.298L245.913 341.331C245.853 340.915 245.714 340.588 245.497 340.349C245.281 340.111 244.921 339.992 244.418 339.992C243.903 339.992 243.495 340.1 243.196 340.317C242.897 340.529 242.748 340.804 242.748 341.142C242.748 341.415 242.839 341.632 243.021 341.792C243.207 341.948 243.556 342.094 244.067 342.228L245.582 342.598C246.435 342.802 247.051 343.153 247.428 343.651C247.809 344.145 248 344.743 248 345.445C248 346.156 247.746 346.745 247.239 347.213C246.732 347.677 246.045 347.965 245.179 348.078V349.242H243.541V348.085C242.652 347.98 241.933 347.705 241.383 347.259C240.837 346.813 240.52 346.178 240.434 345.354L242.41 345.315C242.509 345.744 242.733 346.072 243.079 346.297C243.426 346.518 243.859 346.628 244.379 346.628C244.847 346.628 245.231 346.518 245.53 346.297C245.833 346.076 245.985 345.796 245.985 345.458C245.985 345.112 245.874 344.854 245.653 344.685C245.432 344.512 245.092 344.373 244.633 344.269L243.092 343.938C242.373 343.794 241.799 343.511 241.37 343.086C240.941 342.661 240.722 342.087 240.713 341.363C240.709 340.852 240.828 340.401 241.071 340.011C241.318 339.617 241.656 339.294 242.085 339.043C242.518 338.792 243.014 338.625 243.573 338.542V337.255ZM252.894 338.471C253.54 338.471 254.116 338.573 254.623 338.776C255.134 338.98 255.537 339.279 255.832 339.673C256.127 340.063 256.274 340.544 256.274 341.116C256.274 341.602 256.142 342.013 255.877 342.351C255.613 342.685 255.288 342.943 254.902 343.125C255.188 343.186 255.468 343.329 255.741 343.554C256.018 343.775 256.246 344.048 256.423 344.373C256.601 344.694 256.69 345.034 256.69 345.393C256.69 345.952 256.532 346.438 256.215 346.849C255.899 347.261 255.457 347.58 254.889 347.805C254.322 348.026 253.657 348.137 252.894 348.137C252.136 348.137 251.473 348.026 250.905 347.805C250.337 347.58 249.895 347.261 249.579 346.849C249.267 346.438 249.111 345.952 249.111 345.393C249.111 345.034 249.2 344.694 249.377 344.373C249.555 344.048 249.78 343.775 250.053 343.554C250.326 343.329 250.608 343.186 250.898 343.125C250.513 342.943 250.186 342.685 249.917 342.351C249.648 342.013 249.514 341.602 249.514 341.116C249.514 340.544 249.661 340.063 249.956 339.673C250.255 339.279 250.66 338.98 251.171 338.776C251.683 338.573 252.257 338.471 252.894 338.471ZM252.894 342.39C253.327 342.39 253.683 342.276 253.96 342.046C254.242 341.812 254.382 341.489 254.382 341.077C254.382 340.67 254.242 340.347 253.96 340.109C253.678 339.871 253.323 339.751 252.894 339.751C252.469 339.751 252.116 339.871 251.834 340.109C251.553 340.347 251.412 340.67 251.412 341.077C251.412 341.489 251.553 341.812 251.834 342.046C252.116 342.276 252.469 342.39 252.894 342.39ZM252.894 346.706C253.449 346.706 253.882 346.583 254.194 346.336C254.51 346.085 254.668 345.753 254.668 345.341C254.668 344.926 254.51 344.588 254.194 344.328C253.882 344.063 253.449 343.931 252.894 343.931C252.348 343.931 251.917 344.063 251.6 344.328C251.288 344.588 251.132 344.926 251.132 345.341C251.132 345.753 251.288 346.085 251.6 346.336C251.917 346.583 252.348 346.706 252.894 346.706ZM259.397 348V340.96H257.72V339.888C258.526 339.888 259.106 339.775 259.462 339.55C259.817 339.32 260.016 339.004 260.06 338.601H261.321V348H259.397ZM266.82 338.471C267.938 338.471 268.82 338.889 269.466 339.725C270.111 340.562 270.434 341.76 270.434 343.32C270.434 344.876 270.113 346.069 269.472 346.901C268.835 347.729 267.951 348.143 266.82 348.143C265.68 348.143 264.79 347.729 264.149 346.901C263.512 346.074 263.193 344.882 263.193 343.326C263.193 341.762 263.516 340.562 264.162 339.725C264.812 338.889 265.698 338.471 266.82 338.471ZM266.82 346.589C267.383 346.589 267.793 346.34 268.049 345.842C268.309 345.344 268.439 344.505 268.439 343.326C268.439 342.126 268.306 341.266 268.042 340.746C267.778 340.226 267.368 339.966 266.814 339.966C266.259 339.966 265.845 340.228 265.572 340.752C265.303 341.277 265.169 342.135 265.169 343.326C265.169 344.496 265.303 345.333 265.572 345.835C265.841 346.338 266.257 346.589 266.82 346.589Z" fill="#36536B"/>
</g>
</g>
<g id="Group 36 Copy 2">
<g id="Rectangle_4" filter="url(#filter4_d)">
<rect x="83" y="372" width="204" height="40" rx="5" fill="#FBFCFE"/>
</g>
<g id="Group 35_4">
<path id="$1044" d="M235.383 385.255H237.028V386.549C237.574 386.644 238.042 386.824 238.432 387.088C238.826 387.353 239.127 387.676 239.335 388.057C239.548 388.438 239.649 388.852 239.641 389.298L237.723 389.331C237.663 388.915 237.524 388.588 237.307 388.349C237.091 388.111 236.731 387.992 236.228 387.992C235.713 387.992 235.305 388.1 235.006 388.317C234.707 388.529 234.558 388.804 234.558 389.142C234.558 389.415 234.649 389.632 234.831 389.792C235.017 389.948 235.366 390.094 235.877 390.228L237.392 390.598C238.245 390.802 238.861 391.153 239.238 391.651C239.619 392.145 239.81 392.743 239.81 393.445C239.81 394.156 239.556 394.745 239.049 395.213C238.542 395.677 237.855 395.965 236.989 396.078V397.242H235.351V396.085C234.462 395.98 233.743 395.705 233.193 395.259C232.647 394.813 232.33 394.178 232.244 393.354L234.22 393.315C234.319 393.744 234.543 394.072 234.889 394.297C235.236 394.518 235.669 394.628 236.189 394.628C236.657 394.628 237.041 394.518 237.34 394.297C237.643 394.076 237.795 393.796 237.795 393.458C237.795 393.112 237.684 392.854 237.463 392.685C237.242 392.512 236.902 392.373 236.443 392.269L234.902 391.938C234.183 391.794 233.609 391.511 233.18 391.086C232.751 390.661 232.532 390.087 232.523 389.363C232.519 388.852 232.638 388.401 232.881 388.011C233.128 387.617 233.466 387.294 233.895 387.043C234.328 386.792 234.824 386.625 235.383 386.542V385.255ZM242.585 396V388.96H240.908V387.888C241.714 387.888 242.294 387.775 242.65 387.55C243.005 387.32 243.204 387.004 243.248 386.601H244.509V396H242.585ZM250.008 386.471C251.126 386.471 252.008 386.889 252.654 387.725C253.3 388.562 253.622 389.76 253.622 391.32C253.622 392.876 253.302 394.069 252.66 394.901C252.023 395.729 251.139 396.143 250.008 396.143C248.869 396.143 247.978 395.729 247.337 394.901C246.7 394.074 246.381 392.882 246.381 391.326C246.381 389.762 246.704 388.562 247.35 387.725C248 386.889 248.886 386.471 250.008 386.471ZM250.008 394.589C250.572 394.589 250.981 394.34 251.237 393.842C251.497 393.344 251.627 392.505 251.627 391.326C251.627 390.126 251.495 389.266 251.23 388.746C250.966 388.226 250.557 387.966 250.002 387.966C249.447 387.966 249.033 388.228 248.76 388.752C248.492 389.277 248.357 390.135 248.357 391.326C248.357 392.496 248.492 393.333 248.76 393.835C249.029 394.338 249.445 394.589 250.008 394.589ZM258.88 386.601H260.746V392.328H262.195V393.92H260.746V396H258.919L258.926 393.92H254.597V392.36L258.88 386.601ZM256.352 392.328H258.926V388.882L256.352 392.328ZM267.311 386.601H269.177V392.328H270.626V393.92H269.177V396H267.35L267.357 393.92H263.028V392.36L267.311 386.601ZM264.783 392.328H267.357V388.882L264.783 392.328Z" fill="#36536B"/>
</g>
</g>
<g id="Group 36 Copy 6">
<g id="Rectangle_5" filter="url(#filter5_d)">
<rect x="83" y="420" width="204" height="40" rx="5" fill="#FBFCFE"/>
</g>
<g id="Group 35_5">
<path id="$40" d="M249.224 433.255H250.869V434.549C251.415 434.644 251.883 434.824 252.273 435.088C252.667 435.353 252.968 435.676 253.176 436.057C253.389 436.438 253.49 436.852 253.482 437.298L251.564 437.331C251.504 436.915 251.365 436.588 251.148 436.349C250.932 436.111 250.572 435.992 250.069 435.992C249.554 435.992 249.146 436.1 248.847 436.317C248.548 436.529 248.399 436.804 248.399 437.142C248.399 437.415 248.49 437.632 248.672 437.792C248.858 437.948 249.207 438.094 249.718 438.228L251.233 438.598C252.086 438.802 252.702 439.153 253.079 439.651C253.46 440.145 253.651 440.743 253.651 441.445C253.651 442.156 253.397 442.745 252.89 443.213C252.383 443.677 251.696 443.965 250.83 444.078V445.242H249.192V444.085C248.303 443.98 247.584 443.705 247.034 443.259C246.488 442.813 246.171 442.178 246.085 441.354L248.061 441.315C248.16 441.744 248.384 442.072 248.73 442.297C249.077 442.518 249.51 442.628 250.03 442.628C250.498 442.628 250.882 442.518 251.181 442.297C251.484 442.076 251.636 441.796 251.636 441.458C251.636 441.112 251.525 440.854 251.304 440.685C251.083 440.512 250.743 440.373 250.284 440.269L248.743 439.938C248.024 439.794 247.45 439.511 247.021 439.086C246.592 438.661 246.373 438.087 246.364 437.363C246.36 436.852 246.479 436.401 246.722 436.011C246.969 435.617 247.307 435.294 247.736 435.043C248.169 434.792 248.665 434.625 249.224 434.542V433.255ZM259.032 434.601H260.898V440.328H262.347V441.92H260.898V444H259.071L259.078 441.92H254.749V440.36L259.032 434.601ZM256.504 440.328H259.078V436.882L256.504 440.328ZM266.82 434.471C267.938 434.471 268.82 434.889 269.466 435.725C270.111 436.562 270.434 437.76 270.434 439.32C270.434 440.876 270.113 442.069 269.472 442.901C268.835 443.729 267.951 444.143 266.82 444.143C265.68 444.143 264.79 443.729 264.149 442.901C263.512 442.074 263.193 440.882 263.193 439.326C263.193 437.762 263.516 436.562 264.162 435.725C264.812 434.889 265.698 434.471 266.82 434.471ZM266.82 442.589C267.383 442.589 267.793 442.34 268.049 441.842C268.309 441.344 268.439 440.505 268.439 439.326C268.439 438.126 268.306 437.266 268.042 436.746C267.778 436.226 267.368 435.966 266.814 435.966C266.259 435.966 265.845 436.228 265.572 436.752C265.303 437.277 265.169 438.135 265.169 439.326C265.169 440.496 265.303 441.333 265.572 441.835C265.841 442.338 266.257 442.589 266.82 442.589Z" fill="#36536B"/>
</g>
</g>
<g id="Group 36 Copy 5">
<g id="Rectangle_6" filter="url(#filter6_d)">
<rect x="83" y="468" width="204" height="40" rx="5" fill="#FBFCFE"/>
</g>
<g id="Group 35_6">
<path id="$2566" d="M232.184 481.255H233.828V482.549C234.374 482.644 234.842 482.824 235.232 483.088C235.627 483.353 235.928 483.676 236.136 484.057C236.348 484.438 236.45 484.852 236.441 485.298L234.524 485.331C234.463 484.915 234.325 484.588 234.108 484.349C233.891 484.111 233.532 483.992 233.029 483.992C232.513 483.992 232.106 484.1 231.807 484.317C231.508 484.529 231.358 484.804 231.358 485.142C231.358 485.415 231.449 485.632 231.631 485.792C231.818 485.948 232.167 486.094 232.678 486.228L234.192 486.598C235.046 486.802 235.661 487.153 236.038 487.651C236.42 488.145 236.61 488.743 236.61 489.445C236.61 490.156 236.357 490.745 235.85 491.213C235.343 491.677 234.656 491.965 233.789 492.078V493.242H232.151V492.085C231.263 491.98 230.544 491.705 229.993 491.259C229.447 490.813 229.131 490.178 229.044 489.354L231.02 489.315C231.12 489.744 231.343 490.072 231.69 490.297C232.037 490.518 232.47 490.628 232.99 490.628C233.458 490.628 233.841 490.518 234.14 490.297C234.444 490.076 234.595 489.796 234.595 489.458C234.595 489.112 234.485 488.854 234.264 488.685C234.043 488.512 233.703 488.373 233.243 488.269L231.703 487.938C230.984 487.794 230.409 487.511 229.98 487.086C229.551 486.661 229.333 486.087 229.324 485.363C229.32 484.852 229.439 484.401 229.681 484.011C229.928 483.617 230.266 483.294 230.695 483.043C231.129 482.792 231.625 482.625 232.184 482.542V481.255ZM237.884 492V490.583C237.884 490.106 237.973 489.695 238.151 489.348C238.328 488.997 238.562 488.694 238.853 488.438C239.147 488.182 239.468 487.957 239.815 487.762C240.166 487.563 240.517 487.378 240.868 487.209C241.219 487.036 241.539 486.861 241.83 486.683C242.124 486.505 242.36 486.308 242.538 486.091C242.716 485.87 242.805 485.615 242.805 485.324C242.805 484.947 242.672 484.64 242.408 484.401C242.144 484.163 241.786 484.044 241.336 484.044C240.863 484.044 240.46 484.18 240.127 484.453C239.797 484.726 239.596 485.138 239.522 485.688H237.709C237.713 485.09 237.852 484.549 238.125 484.063C238.398 483.574 238.805 483.186 239.347 482.9C239.888 482.614 240.569 482.471 241.388 482.471C242.09 482.471 242.694 482.59 243.201 482.828C243.712 483.067 244.107 483.398 244.384 483.823C244.661 484.248 244.8 484.744 244.8 485.311C244.8 485.788 244.713 486.198 244.54 486.54C244.367 486.878 244.137 487.17 243.851 487.417C243.565 487.66 243.251 487.872 242.909 488.054C242.566 488.236 242.224 488.405 241.882 488.561C241.544 488.713 241.232 488.871 240.946 489.036C240.66 489.196 240.43 489.378 240.257 489.582C240.083 489.786 239.997 490.03 239.997 490.316V490.401H244.787V492H237.884ZM246.855 482.601H252.894L252.822 484.154H248.357L248.175 486.423C248.521 486.228 248.851 486.087 249.163 486C249.479 485.914 249.826 485.87 250.203 485.87C250.827 485.87 251.388 485.99 251.886 486.228C252.384 486.462 252.779 486.806 253.069 487.261C253.359 487.716 253.505 488.271 253.505 488.925C253.505 489.588 253.355 490.16 253.056 490.641C252.757 491.122 252.332 491.493 251.782 491.753C251.236 492.013 250.588 492.143 249.839 492.143C249.223 492.143 248.651 492.048 248.123 491.857C247.594 491.666 247.137 491.406 246.751 491.077C246.365 490.743 246.073 490.362 245.874 489.933L247.356 489.055C247.611 489.497 247.917 489.868 248.272 490.167C248.627 490.466 249.085 490.615 249.644 490.615C250.207 490.615 250.66 490.466 251.002 490.167C251.344 489.868 251.516 489.478 251.516 488.997C251.516 488.546 251.347 488.169 251.009 487.866C250.675 487.558 250.242 487.404 249.709 487.404C249.418 487.404 249.15 487.443 248.903 487.521C248.66 487.599 248.38 487.764 248.064 488.015C248.003 488.041 247.96 488.054 247.934 488.054C247.912 488.054 247.869 488.039 247.804 488.009L246.426 487.372L246.855 482.601ZM258.492 482.471C259.077 482.471 259.618 482.579 260.117 482.796C260.619 483.008 261.027 483.318 261.339 483.725C261.655 484.128 261.828 484.614 261.859 485.181H260.123C259.889 484.375 259.358 483.972 258.531 483.972C257.855 483.972 257.35 484.254 257.016 484.817C256.687 485.381 256.568 486.12 256.659 487.034C256.875 486.726 257.174 486.486 257.556 486.312C257.937 486.139 258.351 486.052 258.797 486.052C259.43 486.052 259.984 486.172 260.461 486.41C260.942 486.648 261.317 486.984 261.586 487.417C261.854 487.846 261.989 488.351 261.989 488.932C261.989 489.547 261.837 490.098 261.534 490.583C261.235 491.064 260.816 491.445 260.279 491.727C259.742 492.004 259.12 492.143 258.414 492.143C257.612 492.143 256.921 491.95 256.34 491.564C255.764 491.179 255.32 490.637 255.008 489.939C254.7 489.242 254.546 488.423 254.546 487.482C254.546 486.451 254.702 485.561 255.014 484.811C255.33 484.061 255.783 483.485 256.373 483.082C256.962 482.675 257.668 482.471 258.492 482.471ZM258.355 487.469C258.086 487.469 257.826 487.53 257.575 487.651C257.328 487.768 257.124 487.92 256.964 488.106C256.808 488.288 256.73 488.475 256.73 488.665C256.726 489.294 256.873 489.788 257.172 490.147C257.471 490.507 257.863 490.687 258.349 490.687C258.799 490.687 259.183 490.531 259.499 490.219C259.82 489.907 259.98 489.508 259.98 489.023C259.98 488.503 259.824 488.115 259.512 487.859C259.204 487.599 258.819 487.469 258.355 487.469ZM266.935 482.471C267.52 482.471 268.062 482.579 268.56 482.796C269.063 483.008 269.47 483.318 269.782 483.725C270.099 484.128 270.272 484.614 270.302 485.181H268.567C268.333 484.375 267.802 483.972 266.974 483.972C266.298 483.972 265.794 484.254 265.46 484.817C265.131 485.381 265.011 486.12 265.102 487.034C265.319 486.726 265.618 486.486 265.999 486.312C266.381 486.139 266.795 486.052 267.241 486.052C267.874 486.052 268.428 486.172 268.905 486.41C269.386 486.648 269.761 486.984 270.029 487.417C270.298 487.846 270.432 488.351 270.432 488.932C270.432 489.547 270.281 490.098 269.977 490.583C269.678 491.064 269.26 491.445 268.723 491.727C268.186 492.004 267.564 492.143 266.857 492.143C266.056 492.143 265.365 491.95 264.784 491.564C264.208 491.179 263.763 490.637 263.451 489.939C263.144 489.242 262.99 488.423 262.99 487.482C262.99 486.451 263.146 485.561 263.458 484.811C263.774 484.061 264.227 483.485 264.816 483.082C265.406 482.675 266.112 482.471 266.935 482.471ZM266.799 487.469C266.53 487.469 266.27 487.53 266.019 487.651C265.772 487.768 265.568 487.92 265.408 488.106C265.252 488.288 265.174 488.475 265.174 488.665C265.17 489.294 265.317 489.788 265.616 490.147C265.915 490.507 266.307 490.687 266.792 490.687C267.243 490.687 267.627 490.531 267.943 490.219C268.264 489.907 268.424 489.508 268.424 489.023C268.424 488.503 268.268 488.115 267.956 487.859C267.648 487.599 267.263 487.469 266.799 487.469Z" fill="#36536B"/>
</g>
</g>
<g id="Group 36 Copy 4">
<g id="Rectangle_7" filter="url(#filter7_d)">
<rect x="83" y="516" width="204" height="40" rx="5" fill="#FBFCFE"/>
</g>
<g id="Group 35_7">
<path id="$4199" d="M235.142 529.255H236.786V530.549C237.332 530.644 237.8 530.824 238.19 531.088C238.585 531.353 238.886 531.676 239.094 532.057C239.306 532.438 239.408 532.852 239.399 533.298L237.482 533.331C237.421 532.915 237.283 532.588 237.066 532.349C236.849 532.111 236.49 531.992 235.987 531.992C235.471 531.992 235.064 532.1 234.765 532.317C234.466 532.529 234.316 532.804 234.316 533.142C234.316 533.415 234.407 533.632 234.589 533.792C234.776 533.948 235.125 534.094 235.636 534.228L237.15 534.598C238.004 534.802 238.619 535.153 238.996 535.651C239.378 536.145 239.568 536.743 239.568 537.445C239.568 538.156 239.315 538.745 238.808 539.213C238.301 539.677 237.614 539.965 236.747 540.078V541.242H235.109V540.085C234.221 539.98 233.502 539.705 232.951 539.259C232.405 538.813 232.089 538.178 232.002 537.354L233.978 537.315C234.078 537.744 234.301 538.072 234.648 538.297C234.995 538.518 235.428 538.628 235.948 538.628C236.416 538.628 236.799 538.518 237.098 538.297C237.402 538.076 237.553 537.796 237.553 537.458C237.553 537.112 237.443 536.854 237.222 536.685C237.001 536.512 236.661 536.373 236.201 536.269L234.661 535.938C233.942 535.794 233.367 535.511 232.938 535.086C232.509 534.661 232.291 534.087 232.282 533.363C232.278 532.852 232.397 532.401 232.639 532.011C232.886 531.617 233.224 531.294 233.653 531.043C234.087 530.792 234.583 530.625 235.142 530.542V529.255ZM244.95 530.601H246.816V536.328H248.265V537.92H246.816V540H244.989L244.996 537.92H240.667V536.36L244.95 530.601ZM242.422 536.328H244.996V532.882L242.422 536.328ZM250.775 540V532.96H249.098V531.888C249.904 531.888 250.485 531.775 250.84 531.55C251.195 531.32 251.395 531.004 251.438 530.601H252.699V540H250.775ZM258.023 540.143C257.434 540.143 256.885 540.03 256.378 539.805C255.876 539.58 255.464 539.263 255.143 538.856C254.823 538.444 254.643 537.963 254.604 537.413H256.411C256.489 537.777 256.662 538.074 256.931 538.303C257.2 538.529 257.538 538.641 257.945 538.641C258.396 538.641 258.79 538.535 259.128 538.323C259.47 538.111 259.726 537.773 259.895 537.309C260.068 536.845 260.129 536.239 260.077 535.489C259.891 535.836 259.607 536.113 259.225 536.321C258.844 536.525 258.391 536.626 257.867 536.626C257.23 536.626 256.664 536.507 256.17 536.269C255.681 536.026 255.295 535.684 255.013 535.242C254.736 534.796 254.597 534.267 254.597 533.656C254.597 533.041 254.745 532.492 255.039 532.011C255.334 531.53 255.746 531.153 256.274 530.88C256.803 530.607 257.423 530.471 258.133 530.471C258.931 530.471 259.618 530.662 260.194 531.043C260.775 531.42 261.219 531.957 261.526 532.655C261.838 533.348 261.994 534.165 261.994 535.105C261.994 536.787 261.641 538.048 260.935 538.888C260.229 539.725 259.258 540.143 258.023 540.143ZM258.192 535.118C258.456 535.118 258.712 535.06 258.959 534.943C259.21 534.822 259.416 534.67 259.576 534.488C259.737 534.306 259.817 534.117 259.817 533.922C259.821 533.29 259.672 532.796 259.368 532.44C259.069 532.085 258.677 531.907 258.192 531.907C257.746 531.907 257.375 532.061 257.08 532.369C256.786 532.677 256.638 533.077 256.638 533.571C256.638 534.061 256.781 534.442 257.067 534.715C257.353 534.984 257.728 535.118 258.192 535.118ZM266.454 540.143C265.865 540.143 265.317 540.03 264.81 539.805C264.307 539.58 263.895 539.263 263.575 538.856C263.254 538.444 263.074 537.963 263.035 537.413H264.842C264.92 537.777 265.093 538.074 265.362 538.303C265.631 538.529 265.969 538.641 266.376 538.641C266.827 538.641 267.221 538.535 267.559 538.323C267.901 538.111 268.157 537.773 268.326 537.309C268.499 536.845 268.56 536.239 268.508 535.489C268.322 535.836 268.038 536.113 267.657 536.321C267.275 536.525 266.822 536.626 266.298 536.626C265.661 536.626 265.096 536.507 264.602 536.269C264.112 536.026 263.726 535.684 263.445 535.242C263.167 534.796 263.029 534.267 263.029 533.656C263.029 533.041 263.176 532.492 263.471 532.011C263.765 531.53 264.177 531.153 264.706 530.88C265.234 530.607 265.854 530.471 266.565 530.471C267.362 530.471 268.049 530.662 268.625 531.043C269.206 531.42 269.65 531.957 269.958 532.655C270.27 533.348 270.426 534.165 270.426 535.105C270.426 536.787 270.072 538.048 269.366 538.888C268.66 539.725 267.689 540.143 266.454 540.143ZM266.623 535.118C266.887 535.118 267.143 535.06 267.39 534.943C267.641 534.822 267.847 534.67 268.008 534.488C268.168 534.306 268.248 534.117 268.248 533.922C268.252 533.29 268.103 532.796 267.8 532.44C267.501 532.085 267.108 531.907 266.623 531.907C266.177 531.907 265.806 532.061 265.512 532.369C265.217 532.677 265.07 533.077 265.07 533.571C265.07 534.061 265.213 534.442 265.499 534.715C265.785 534.984 266.159 535.118 266.623 535.118Z" fill="#36536B"/>
</g>
</g>
</g>
<rect id="Rectangle_8" x="68.0742" y="67.4445" width="233" height="114" fill="#36536B"/>
</g>
<g id="Group 26" clip-path="url(#clip0)">
<g id="Rectangle_9" filter="url(#filter8_d)">
<rect x="83" y="148" width="204" height="56" rx="5" fill="#FBFCFE"/>
</g>
<path id="$9204" d="M212.006 166.47H214.536V168.46C215.376 168.607 216.096 168.883 216.696 169.29C217.302 169.697 217.766 170.193 218.086 170.78C218.412 171.367 218.569 172.003 218.556 172.69L215.606 172.74C215.512 172.1 215.299 171.597 214.966 171.23C214.632 170.863 214.079 170.68 213.306 170.68C212.512 170.68 211.886 170.847 211.426 171.18C210.966 171.507 210.736 171.93 210.736 172.45C210.736 172.87 210.876 173.203 211.156 173.45C211.442 173.69 211.979 173.913 212.766 174.12L215.096 174.69C216.409 175.003 217.356 175.543 217.936 176.31C218.522 177.07 218.816 177.99 218.816 179.07C218.816 180.163 218.426 181.07 217.646 181.79C216.866 182.503 215.809 182.947 214.476 183.12V184.91H211.956V183.13C210.589 182.97 209.482 182.547 208.636 181.86C207.796 181.173 207.309 180.197 207.176 178.93L210.216 178.87C210.369 179.53 210.712 180.033 211.246 180.38C211.779 180.72 212.446 180.89 213.246 180.89C213.966 180.89 214.556 180.72 215.016 180.38C215.482 180.04 215.716 179.61 215.716 179.09C215.716 178.557 215.546 178.16 215.206 177.9C214.866 177.633 214.342 177.42 213.636 177.26L211.266 176.75C210.159 176.53 209.276 176.093 208.616 175.44C207.956 174.787 207.619 173.903 207.606 172.79C207.599 172.003 207.782 171.31 208.156 170.71C208.536 170.103 209.056 169.607 209.716 169.22C210.382 168.833 211.146 168.577 212.006 168.45V166.47ZM225.835 183.22C224.928 183.22 224.085 183.047 223.305 182.7C222.532 182.353 221.898 181.867 221.405 181.24C220.912 180.607 220.635 179.867 220.575 179.02H223.355C223.475 179.58 223.742 180.037 224.155 180.39C224.568 180.737 225.088 180.91 225.715 180.91C226.408 180.91 227.015 180.747 227.535 180.42C228.062 180.093 228.455 179.573 228.715 178.86C228.982 178.147 229.075 177.213 228.995 176.06C228.708 176.593 228.272 177.02 227.685 177.34C227.098 177.653 226.402 177.81 225.595 177.81C224.615 177.81 223.745 177.627 222.985 177.26C222.232 176.887 221.638 176.36 221.205 175.68C220.778 174.993 220.565 174.18 220.565 173.24C220.565 172.293 220.792 171.45 221.245 170.71C221.698 169.97 222.332 169.39 223.145 168.97C223.958 168.55 224.912 168.34 226.005 168.34C227.232 168.34 228.288 168.633 229.175 169.22C230.068 169.8 230.752 170.627 231.225 171.7C231.705 172.767 231.945 174.023 231.945 175.47C231.945 178.057 231.402 179.997 230.315 181.29C229.228 182.577 227.735 183.22 225.835 183.22ZM226.095 175.49C226.502 175.49 226.895 175.4 227.275 175.22C227.662 175.033 227.978 174.8 228.225 174.52C228.472 174.24 228.595 173.95 228.595 173.65C228.602 172.677 228.372 171.917 227.905 171.37C227.445 170.823 226.842 170.55 226.095 170.55C225.408 170.55 224.838 170.787 224.385 171.26C223.932 171.733 223.705 172.35 223.705 173.11C223.705 173.863 223.925 174.45 224.365 174.87C224.805 175.283 225.382 175.49 226.095 175.49ZM233.805 183V180.82C233.805 180.087 233.942 179.453 234.215 178.92C234.488 178.38 234.848 177.913 235.295 177.52C235.748 177.127 236.242 176.78 236.775 176.48C237.315 176.173 237.855 175.89 238.395 175.63C238.935 175.363 239.428 175.093 239.875 174.82C240.328 174.547 240.692 174.243 240.965 173.91C241.238 173.57 241.375 173.177 241.375 172.73C241.375 172.15 241.172 171.677 240.765 171.31C240.358 170.943 239.808 170.76 239.115 170.76C238.388 170.76 237.768 170.97 237.255 171.39C236.748 171.81 236.438 172.443 236.325 173.29H233.535C233.542 172.37 233.755 171.537 234.175 170.79C234.595 170.037 235.222 169.44 236.055 169C236.888 168.56 237.935 168.34 239.195 168.34C240.275 168.34 241.205 168.523 241.985 168.89C242.772 169.257 243.378 169.767 243.805 170.42C244.232 171.073 244.445 171.837 244.445 172.71C244.445 173.443 244.312 174.073 244.045 174.6C243.778 175.12 243.425 175.57 242.985 175.95C242.545 176.323 242.062 176.65 241.535 176.93C241.008 177.21 240.482 177.47 239.955 177.71C239.435 177.943 238.955 178.187 238.515 178.44C238.075 178.687 237.722 178.967 237.455 179.28C237.188 179.593 237.055 179.97 237.055 180.41V180.54H244.425V183H233.805ZM251.676 168.34C253.396 168.34 254.753 168.983 255.746 170.27C256.74 171.557 257.236 173.4 257.236 175.8C257.236 178.193 256.743 180.03 255.756 181.31C254.776 182.583 253.416 183.22 251.676 183.22C249.923 183.22 248.553 182.583 247.566 181.31C246.586 180.037 246.096 178.203 246.096 175.81C246.096 173.403 246.593 171.557 247.586 170.27C248.586 168.983 249.95 168.34 251.676 168.34ZM251.676 180.83C252.543 180.83 253.173 180.447 253.566 179.68C253.966 178.913 254.166 177.623 254.166 175.81C254.166 173.963 253.963 172.64 253.556 171.84C253.15 171.04 252.52 170.64 251.666 170.64C250.813 170.64 250.176 171.043 249.756 171.85C249.343 172.657 249.136 173.977 249.136 175.81C249.136 177.61 249.343 178.897 249.756 179.67C250.17 180.443 250.81 180.83 251.676 180.83ZM265.325 168.54H268.195V177.35H270.425V179.8H268.195V183H265.385L265.395 179.8H258.735V177.4L265.325 168.54ZM261.435 177.35H265.395V172.05L261.435 177.35Z" fill="#BA4270"/>
</g>
<g id="Group 27">
<path id="payapi" fill-rule="evenodd" clip-rule="evenodd" d="M227.047 106.425V104.344H226.279V106.425H227.047ZM173.923 122.432V117.481H173.963C174.313 117.993 174.761 118.38 175.307 118.643C175.853 118.905 176.449 119.037 177.096 119.037C177.864 119.037 178.534 118.889 179.107 118.592C179.679 118.296 180.157 117.898 180.541 117.4C180.925 116.901 181.212 116.329 181.4 115.682C181.589 115.035 181.683 114.361 181.683 113.661C181.683 112.92 181.589 112.209 181.4 111.529C181.212 110.848 180.922 110.252 180.531 109.74C180.141 109.228 179.649 108.817 179.056 108.507C178.463 108.197 177.756 108.042 176.934 108.042C176.287 108.042 175.694 108.17 175.155 108.426C174.616 108.682 174.172 109.093 173.821 109.659H173.781V108.325H171.053V122.432H173.923ZM176.328 116.894C175.869 116.894 175.479 116.8 175.155 116.611C174.832 116.423 174.573 116.177 174.377 115.874C174.182 115.571 174.04 115.217 173.953 114.813C173.865 114.409 173.821 113.998 173.821 113.58C173.821 113.149 173.862 112.731 173.943 112.327C174.024 111.923 174.162 111.566 174.357 111.256C174.552 110.946 174.808 110.693 175.125 110.498C175.442 110.302 175.836 110.205 176.307 110.205C176.765 110.205 177.153 110.302 177.469 110.498C177.786 110.693 178.045 110.949 178.248 111.266C178.45 111.582 178.595 111.943 178.682 112.347C178.77 112.751 178.813 113.162 178.813 113.58C178.813 113.998 178.773 114.409 178.692 114.813C178.611 115.217 178.473 115.571 178.278 115.874C178.083 116.177 177.827 116.423 177.51 116.611C177.193 116.8 176.799 116.894 176.328 116.894ZM188.258 118.754C187.638 118.942 187.005 119.037 186.358 119.037C185.86 119.037 185.395 118.976 184.964 118.855C184.533 118.734 184.155 118.545 183.832 118.289C183.509 118.033 183.256 117.71 183.074 117.319C182.892 116.928 182.801 116.463 182.801 115.924C182.801 115.331 182.906 114.843 183.114 114.459C183.323 114.075 183.593 113.769 183.923 113.539C184.253 113.31 184.63 113.139 185.055 113.024C185.479 112.91 185.907 112.819 186.338 112.751C186.769 112.684 187.194 112.63 187.611 112.59C188.029 112.549 188.399 112.489 188.723 112.408C189.046 112.327 189.302 112.209 189.491 112.054C189.679 111.899 189.767 111.673 189.754 111.377C189.754 111.067 189.703 110.821 189.602 110.639C189.501 110.457 189.366 110.316 189.198 110.215C189.029 110.114 188.834 110.046 188.612 110.013C188.389 109.979 188.15 109.962 187.894 109.962C187.328 109.962 186.884 110.083 186.56 110.326C186.237 110.569 186.048 110.973 185.994 111.539H183.125C183.165 110.865 183.333 110.306 183.63 109.861C183.926 109.417 184.303 109.059 184.762 108.79C185.22 108.521 185.735 108.329 186.308 108.214C186.88 108.099 187.456 108.042 188.036 108.042C188.561 108.042 189.093 108.079 189.632 108.153C190.171 108.227 190.663 108.372 191.108 108.588C191.552 108.803 191.916 109.103 192.199 109.487C192.482 109.871 192.623 110.38 192.623 111.013V116.45C192.623 116.921 192.65 117.373 192.704 117.804C192.758 118.235 192.853 118.558 192.987 118.774H190.077C190.023 118.612 189.979 118.447 189.946 118.279C189.912 118.11 189.888 117.939 189.875 117.763C189.417 118.235 188.878 118.565 188.258 118.754ZM187.429 117.137C187.2 117.137 186.978 117.117 186.762 117.076C186.547 117.036 186.358 116.965 186.197 116.864C186.035 116.763 185.907 116.625 185.813 116.45C185.718 116.275 185.671 116.059 185.671 115.803C185.671 115.534 185.718 115.311 185.813 115.136C185.907 114.961 186.031 114.816 186.186 114.702C186.341 114.587 186.523 114.496 186.732 114.429C186.941 114.361 187.153 114.307 187.369 114.267C187.598 114.227 187.827 114.193 188.056 114.166C188.285 114.139 188.504 114.105 188.713 114.065C188.922 114.025 189.117 113.974 189.299 113.913C189.481 113.853 189.632 113.769 189.754 113.661V114.732C189.754 114.894 189.737 115.109 189.703 115.379C189.669 115.648 189.578 115.914 189.43 116.177C189.282 116.44 189.053 116.665 188.743 116.854C188.433 117.043 187.995 117.137 187.429 117.137ZM198.551 121.886C197.999 122.25 197.231 122.432 196.247 122.432C195.951 122.432 195.658 122.422 195.368 122.402C195.079 122.382 194.785 122.358 194.489 122.331V119.966C194.759 119.993 195.035 120.02 195.318 120.047C195.601 120.074 195.884 120.081 196.167 120.067C196.544 120.027 196.823 119.879 197.005 119.623C197.187 119.367 197.278 119.084 197.278 118.774C197.278 118.545 197.238 118.329 197.157 118.127L193.499 108.325H196.551L198.915 115.48H198.956L201.239 108.325H204.21L199.845 120.067C199.535 120.916 199.104 121.523 198.551 121.886ZM208.057 119.017C208.555 119.017 209.013 118.956 209.431 118.835C209.849 118.713 210.222 118.545 210.553 118.329C210.883 118.114 211.162 117.868 211.391 117.592C211.62 117.315 211.795 117.022 211.917 116.713H211.957V117.258C211.957 117.474 211.974 117.673 212.008 117.854C212.041 118.036 212.105 118.195 212.2 118.329C212.294 118.464 212.432 118.572 212.614 118.653C212.796 118.734 213.042 118.774 213.352 118.774C213.567 118.774 213.776 118.747 213.978 118.693V118.046C213.736 118.087 213.547 118.107 213.412 118.107C213.237 118.107 213.102 118.07 213.008 117.996C212.914 117.922 212.846 117.824 212.806 117.703C212.766 117.582 212.742 117.447 212.735 117.299C212.729 117.15 212.725 117.002 212.725 116.854V110.811C212.725 110.016 212.439 109.373 211.866 108.881C211.294 108.389 210.381 108.143 209.128 108.143C207.875 108.143 206.908 108.43 206.227 109.002C205.547 109.575 205.18 110.434 205.126 111.579H205.894C205.948 110.649 206.261 109.955 206.834 109.497C207.406 109.039 208.158 108.81 209.087 108.81C209.613 108.81 210.057 108.864 210.421 108.972C210.785 109.08 211.081 109.228 211.31 109.417C211.539 109.605 211.708 109.821 211.816 110.063C211.923 110.306 211.977 110.569 211.977 110.851C211.977 111.215 211.957 111.518 211.917 111.761C211.876 112.003 211.775 112.202 211.614 112.357C211.452 112.512 211.213 112.633 210.896 112.721C210.579 112.809 210.145 112.873 209.593 112.913L208.4 113.014C207.982 113.054 207.548 113.122 207.097 113.216C206.645 113.31 206.234 113.469 205.864 113.691C205.493 113.913 205.187 114.217 204.944 114.601C204.702 114.984 204.58 115.48 204.58 116.086C204.58 117.083 204.883 117.821 205.49 118.299C206.096 118.777 206.952 119.017 208.057 119.017ZM206.076 117.794C206.561 118.164 207.228 118.35 208.077 118.35C208.953 118.35 209.646 118.191 210.158 117.875C210.67 117.558 211.061 117.194 211.331 116.783C211.6 116.372 211.772 115.975 211.846 115.591C211.92 115.207 211.957 114.947 211.957 114.813V112.873C211.769 113.102 211.482 113.257 211.098 113.337C210.714 113.418 210.286 113.479 209.815 113.519L208.521 113.641C208.144 113.681 207.767 113.738 207.39 113.812C207.012 113.886 206.672 114.011 206.369 114.186C206.066 114.361 205.82 114.601 205.631 114.904C205.443 115.207 205.348 115.601 205.348 116.086C205.348 116.854 205.591 117.423 206.076 117.794ZM215.965 122.493V116.611H216.005C216.315 117.46 216.807 118.073 217.481 118.451C218.155 118.828 218.923 119.017 219.785 119.017C220.58 119.017 221.27 118.882 221.856 118.612C222.443 118.343 222.928 117.969 223.312 117.491C223.696 117.012 223.982 116.443 224.171 115.783C224.359 115.123 224.453 114.395 224.453 113.6C224.453 112.873 224.359 112.179 224.171 111.518C223.982 110.858 223.696 110.279 223.312 109.78C222.928 109.282 222.443 108.884 221.856 108.588C221.27 108.291 220.58 108.143 219.785 108.143C219.219 108.143 218.717 108.231 218.279 108.406C217.841 108.581 217.467 108.8 217.157 109.063C216.848 109.326 216.598 109.612 216.41 109.922C216.221 110.232 216.086 110.515 216.005 110.771H215.965V108.386H215.197V122.493H215.965ZM217.956 117.955C218.448 118.218 219.057 118.35 219.785 118.35C220.459 118.35 221.041 118.222 221.533 117.966C222.025 117.71 222.429 117.366 222.746 116.935C223.062 116.504 223.298 116.002 223.453 115.429C223.608 114.857 223.685 114.247 223.685 113.6C223.685 113.007 223.611 112.425 223.463 111.852C223.315 111.279 223.086 110.767 222.776 110.316C222.466 109.865 222.065 109.501 221.573 109.225C221.082 108.948 220.485 108.81 219.785 108.81C219.098 108.81 218.512 108.945 218.027 109.214C217.541 109.484 217.147 109.841 216.844 110.286C216.541 110.73 216.322 111.239 216.187 111.811C216.053 112.384 215.985 112.98 215.985 113.6C215.985 114.22 216.046 114.816 216.167 115.389C216.288 115.961 216.494 116.467 216.784 116.905C217.073 117.342 217.464 117.693 217.956 117.955ZM226.279 108.386H227.047V118.774H226.279V108.386Z" fill="white"/>
<g id="Group 25">
<circle id="Oval" cx="154.09" cy="104.158" r="1.89474" transform="rotate(45 154.09 104.158)" fill="white"/>
<circle id="Oval Copy 6" cx="158.556" cy="108.624" r="1.89474" transform="rotate(45 158.556 108.624)" fill="white"/>
<circle id="Oval Copy 7" cx="163.022" cy="113.09" r="1.89474" transform="rotate(45 163.022 113.09)" fill="white"/>
<circle id="Oval Copy 10" cx="149.624" cy="108.624" r="1.89474" transform="rotate(45 149.624 108.624)" fill="white"/>
<circle id="Oval Copy 9" opacity="0.5" cx="154.09" cy="113.09" r="1.89474" transform="rotate(45 154.09 113.09)" fill="white"/>
<circle id="Oval Copy 8" opacity="0.5" cx="158.556" cy="117.556" r="1.89474" transform="rotate(45 158.556 117.556)" fill="white"/>
<circle id="Oval Copy 13" cx="145.158" cy="113.09" r="1.89474" transform="rotate(45 145.158 113.09)" fill="white"/>
<circle id="Oval Copy 12" opacity="0.5" cx="149.624" cy="117.556" r="1.89474" transform="rotate(45 149.624 117.556)" fill="white"/>
<circle id="Oval Copy 11" opacity="0.25" cx="154.09" cy="122.022" r="1.89474" transform="rotate(45 154.09 122.022)" fill="white"/>
</g>
</g>
</g>
</g>
</g>
<defs>
<filter id="filter0_d" x="0.567993" y="0.569473" width="417.649" height="658.861" filterUnits="userSpaceOnUse" color-interpolation-filters="sRGB">
<feFlood flood-opacity="0" result="BackgroundImageFix"/>
<feColorMatrix in="SourceAlpha" type="matrix" values="0 0 0 0 0 0 0 0 0 0 0 0 0 0 0 0 0 0 127 0"/>
<feOffset dx="25" dy="25"/>
<feGaussianBlur stdDeviation="40"/>
<feColorMatrix type="matrix" values="0 0 0 0 0.212302 0 0 0 0 0.32521 0 0 0 0 0.419299 0 0 0 0.300727 0"/>
<feBlend mode="normal" in2="BackgroundImageFix" result="effect1_dropShadow"/>
<feBlend mode="normal" in="SourceGraphic" in2="effect1_dropShadow" result="shape"/>
</filter>
<filter id="filter1_d" x="78" y="223" width="234" height="70" filterUnits="userSpaceOnUse" color-interpolation-filters="sRGB">
<feFlood flood-opacity="0" result="BackgroundImageFix"/>
<feColorMatrix in="SourceAlpha" type="matrix" values="0 0 0 0 0 0 0 0 0 0 0 0 0 0 0 0 0 0 127 0"/>
<feMorphology radius="10" operator="erode" in="SourceAlpha" result="effect1_dropShadow"/>
<feOffset dx="10" dy="10"/>
<feGaussianBlur stdDeviation="12.5"/>
<feColorMatrix type="matrix" values="0 0 0 0 0.212302 0 0 0 0 0.32521 0 0 0 0 0.419299 0 0 0 0.25 0"/>
<feBlend mode="normal" in2="BackgroundImageFix" result="effect1_dropShadow"/>
<feBlend mode="normal" in="SourceGraphic" in2="effect1_dropShadow" result="shape"/>
</filter>
<filter id="filter2_d" x="78" y="271" width="234" height="70" filterUnits="userSpaceOnUse" color-interpolation-filters="sRGB">
<feFlood flood-opacity="0" result="BackgroundImageFix"/>
<feColorMatrix in="SourceAlpha" type="matrix" values="0 0 0 0 0 0 0 0 0 0 0 0 0 0 0 0 0 0 127 0"/>
<feMorphology radius="10" operator="erode" in="SourceAlpha" result="effect1_dropShadow"/>
<feOffset dx="10" dy="10"/>
<feGaussianBlur stdDeviation="12.5"/>
<feColorMatrix type="matrix" values="0 0 0 0 0.212302 0 0 0 0 0.32521 0 0 0 0 0.419299 0 0 0 0.25 0"/>
<feBlend mode="normal" in2="BackgroundImageFix" result="effect1_dropShadow"/>
<feBlend mode="normal" in="SourceGraphic" in2="effect1_dropShadow" result="shape"/>
</filter>
<filter id="filter3_d" x="78" y="319" width="234" height="70" filterUnits="userSpaceOnUse" color-interpolation-filters="sRGB">
<feFlood flood-opacity="0" result="BackgroundImageFix"/>
<feColorMatrix in="SourceAlpha" type="matrix" values="0 0 0 0 0 0 0 0 0 0 0 0 0 0 0 0 0 0 127 0"/>
<feMorphology radius="10" operator="erode" in="SourceAlpha" result="effect1_dropShadow"/>
<feOffset dx="10" dy="10"/>
<feGaussianBlur stdDeviation="12.5"/>
<feColorMatrix type="matrix" values="0 0 0 0 0.212302 0 0 0 0 0.32521 0 0 0 0 0.419299 0 0 0 0.25 0"/>
<feBlend mode="normal" in2="BackgroundImageFix" result="effect1_dropShadow"/>
<feBlend mode="normal" in="SourceGraphic" in2="effect1_dropShadow" result="shape"/>
</filter>
<filter id="filter4_d" x="78" y="367" width="234" height="70" filterUnits="userSpaceOnUse" color-interpolation-filters="sRGB">
<feFlood flood-opacity="0" result="BackgroundImageFix"/>
<feColorMatrix in="SourceAlpha" type="matrix" values="0 0 0 0 0 0 0 0 0 0 0 0 0 0 0 0 0 0 127 0"/>
<feMorphology radius="10" operator="erode" in="SourceAlpha" result="effect1_dropShadow"/>
<feOffset dx="10" dy="10"/>
<feGaussianBlur stdDeviation="12.5"/>
<feColorMatrix type="matrix" values="0 0 0 0 0.212302 0 0 0 0 0.32521 0 0 0 0 0.419299 0 0 0 0.25 0"/>
<feBlend mode="normal" in2="BackgroundImageFix" result="effect1_dropShadow"/>
<feBlend mode="normal" in="SourceGraphic" in2="effect1_dropShadow" result="shape"/>
</filter>
<filter id="filter5_d" x="78" y="415" width="234" height="70" filterUnits="userSpaceOnUse" color-interpolation-filters="sRGB">
<feFlood flood-opacity="0" result="BackgroundImageFix"/>
<feColorMatrix in="SourceAlpha" type="matrix" values="0 0 0 0 0 0 0 0 0 0 0 0 0 0 0 0 0 0 127 0"/>
<feMorphology radius="10" operator="erode" in="SourceAlpha" result="effect1_dropShadow"/>
<feOffset dx="10" dy="10"/>
<feGaussianBlur stdDeviation="12.5"/>
<feColorMatrix type="matrix" values="0 0 0 0 0.212302 0 0 0 0 0.32521 0 0 0 0 0.419299 0 0 0 0.25 0"/>
<feBlend mode="normal" in2="BackgroundImageFix" result="effect1_dropShadow"/>
<feBlend mode="normal" in="SourceGraphic" in2="effect1_dropShadow" result="shape"/>
</filter>
<filter id="filter6_d" x="78" y="463" width="234" height="70" filterUnits="userSpaceOnUse" color-interpolation-filters="sRGB">
<feFlood flood-opacity="0" result="BackgroundImageFix"/>
<feColorMatrix in="SourceAlpha" type="matrix" values="0 0 0 0 0 0 0 0 0 0 0 0 0 0 0 0 0 0 127 0"/>
<feMorphology radius="10" operator="erode" in="SourceAlpha" result="effect1_dropShadow"/>
<feOffset dx="10" dy="10"/>
<feGaussianBlur stdDeviation="12.5"/>
<feColorMatrix type="matrix" values="0 0 0 0 0.212302 0 0 0 0 0.32521 0 0 0 0 0.419299 0 0 0 0.25 0"/>
<feBlend mode="normal" in2="BackgroundImageFix" result="effect1_dropShadow"/>
<feBlend mode="normal" in="SourceGraphic" in2="effect1_dropShadow" result="shape"/>
</filter>
<filter id="filter7_d" x="78" y="511" width="234" height="70" filterUnits="userSpaceOnUse" color-interpolation-filters="sRGB">
<feFlood flood-opacity="0" result="BackgroundImageFix"/>
<feColorMatrix in="SourceAlpha" type="matrix" values="0 0 0 0 0 0 0 0 0 0 0 0 0 0 0 0 0 0 127 0"/>
<feMorphology radius="10" operator="erode" in="SourceAlpha" result="effect1_dropShadow"/>
<feOffset dx="10" dy="10"/>
<feGaussianBlur stdDeviation="12.5"/>
<feColorMatrix type="matrix" values="0 0 0 0 0.212302 0 0 0 0 0.32521 0 0 0 0 0.419299 0 0 0 0.25 0"/>
<feBlend mode="normal" in2="BackgroundImageFix" result="effect1_dropShadow"/>
<feBlend mode="normal" in="SourceGraphic" in2="effect1_dropShadow" result="shape"/>
</filter>
<filter id="filter8_d" x="78" y="143" width="234" height="86" filterUnits="userSpaceOnUse" color-interpolation-filters="sRGB">
<feFlood flood-opacity="0" result="BackgroundImageFix"/>
<feColorMatrix in="SourceAlpha" type="matrix" values="0 0 0 0 0 0 0 0 0 0 0 0 0 0 0 0 0 0 127 0"/>
<feMorphology radius="10" operator="erode" in="SourceAlpha" result="effect1_dropShadow"/>
<feOffset dx="10" dy="10"/>
<feGaussianBlur stdDeviation="12.5"/>
<feColorMatrix type="matrix" values="0 0 0 0 0.212302 0 0 0 0 0.32521 0 0 0 0 0.419299 0 0 0 0.25 0"/>
<feBlend mode="normal" in2="BackgroundImageFix" result="effect1_dropShadow"/>
<feBlend mode="normal" in="SourceGraphic" in2="effect1_dropShadow" result="shape"/>
</filter>
<linearGradient id="paint0_linear" x1="63.0148" y1="55" x2="63.0148" y2="67.3239" gradientUnits="userSpaceOnUse">
<stop stop-color="#454545"/>
<stop offset="0.226279" stop-color="#999999"/>
<stop offset="1" stop-color="white"/>
</linearGradient>
<linearGradient id="paint1_linear" x1="313.103" y1="140.747" x2="303.642" y2="140.747" gradientUnits="userSpaceOnUse">
<stop stop-color="white" stop-opacity="0.01"/>
<stop offset="0.222178" stop-color="#BABABA"/>
<stop offset="0.54678" stop-color="white" stop-opacity="0.01"/>
<stop offset="1" stop-color="white" stop-opacity="0.01"/>
</linearGradient>
<linearGradient id="paint2_linear" x1="55.568" y1="140.487" x2="65.044" y2="140.487" gradientUnits="userSpaceOnUse">
<stop stop-color="white" stop-opacity="0.01"/>
<stop offset="0.222178" stop-color="#BABABA"/>
<stop offset="0.54678" stop-color="white" stop-opacity="0.01"/>
<stop offset="1" stop-color="white" stop-opacity="0.01"/>
</linearGradient>
<clipPath id="clip0">
<rect width="204" height="56" fill="white" transform="translate(83 148)"/>
</clipPath>
</defs>
</svg>
